<svg width="23" height="28" viewBox="0 0 23 28" fill="none" xmlns="http://www.w3.org/2000/svg">
<g clip-path="url(#clip0_651_140)">
<path d="M18.0871 2.78057V0.0199324H16.5973V2.78057H6.00412V0H4.5143V2.78057H0V8.11248H23V2.78057H18.0871ZM5.25672 6.91653C4.50932 6.91653 3.90143 6.3086 3.90143 5.56113C3.90143 5.08774 4.14558 4.67414 4.50932 4.42997V2.81545H5.99913V4.42997C6.36785 4.67414 6.60702 5.08774 6.60702 5.56113C6.60702 6.3086 5.99913 6.91653 5.25173 6.91653H5.25672ZM17.3397 6.82684C16.5923 6.82684 15.9844 6.2189 15.9844 5.47144C15.9844 4.99804 16.2286 4.58445 16.5923 4.34027V2.83538H18.0821V4.34027C18.4508 4.58445 18.69 4.99804 18.69 5.47144C18.69 6.2189 18.0821 6.82684 17.3347 6.82684H17.3397Z" fill="black"/>
<path d="M0 28H23V9.03931H0V28ZM12.5563 15.0639C13.0546 15.0439 13.4084 15.0091 13.6077 14.9642C13.9266 14.8944 14.1857 14.7549 14.385 14.5406C14.5195 14.3961 14.6241 14.2018 14.6939 13.9626C14.7338 13.8181 14.7537 13.7085 14.7537 13.6387H16.0691V21.6964H14.4448V16.1402H12.5513V15.0639H12.5563ZM9.01863 18.3079C8.77448 18.2082 8.39081 18.1584 7.86265 18.1584V17.0222C8.37587 17.0172 8.73462 16.9624 8.93891 16.8727C9.29268 16.7183 9.46707 16.4043 9.46707 15.9259C9.46707 15.617 9.37738 15.3678 9.19801 15.1735C9.01863 14.9792 8.76451 14.8845 8.44064 14.8845C8.06694 14.8845 7.79289 15.0041 7.6185 15.2383C7.43913 15.4775 7.35442 15.7914 7.36438 16.19H5.88453C5.89948 15.7914 5.96924 15.4077 6.08882 15.0489C6.21837 14.735 6.42266 14.441 6.70169 14.1769C6.91096 13.9875 7.15511 13.843 7.43913 13.7433C7.72314 13.6437 8.07691 13.5939 8.49047 13.5939C9.26278 13.5939 9.88063 13.7932 10.354 14.1918C10.8273 14.5905 11.0615 15.1237 11.0615 15.7964C11.0615 16.2698 10.922 16.6734 10.638 16.9973C10.4586 17.2016 10.2743 17.3411 10.0799 17.4159C10.2244 17.4159 10.4337 17.5405 10.7028 17.7896C11.1064 18.1634 11.3107 18.6766 11.3107 19.3244C11.3107 20.0071 11.0765 20.6051 10.6031 21.1233C10.1298 21.6415 9.43219 21.9007 8.50542 21.9007C7.36438 21.9007 6.57214 21.5269 6.12868 20.7845C5.8945 20.3858 5.76495 19.8676 5.74004 19.2297H7.29463C7.29463 19.5536 7.34445 19.8177 7.44909 20.032C7.64341 20.4207 7.9922 20.615 8.50043 20.615C8.80936 20.615 9.08341 20.5104 9.31261 20.2961C9.54181 20.0818 9.6614 19.7779 9.6614 19.3742C9.6614 18.846 9.44714 18.4922 9.01863 18.3128V18.3079Z" fill="black"/>
</g>
<defs>
<clipPath id="clip0_651_140">
<rect width="23" height="28" fill="white"/>
</clipPath>
</defs>
</svg>
