<svg width="14" height="12" viewBox="0 0 14 12" fill="none" xmlns="http://www.w3.org/2000/svg">
<path d="M13.4389 7.81772C12.0223 10.0033 9.60384 11.3326 6.9994 11.3571C4.39498 11.3326 1.97647 10.0033 0.559892 7.81772C-0.186631 6.72215 -0.186631 5.28133 0.559892 4.18573C1.97567 1.99877 4.39432 0.668115 6.99942 0.642882C9.60384 0.667317 12.0223 1.9966 13.439 4.18221C14.187 5.27861 14.187 6.72136 13.4389 7.81772ZM11.9894 5.17905C10.9079 3.46362 9.02727 2.41703 6.9994 2.40199C4.97155 2.417 3.09092 3.46362 2.00937 5.17905C1.6722 5.67441 1.6722 6.32556 2.00937 6.82088C3.0909 8.53632 4.97152 9.58291 6.9994 9.59794C9.02724 9.58294 10.9079 8.53632 11.9894 6.82088C12.3266 6.32556 12.3266 5.67441 11.9894 5.17905Z" fill="#979696"/>
<path d="M6.9994 3.65451C8.29477 3.65451 9.34488 4.70462 9.34488 5.99999C9.34488 7.29535 8.29477 8.34546 6.9994 8.34546C5.70403 8.34546 4.65393 7.29535 4.65393 5.99999C4.65393 4.70462 5.70403 3.65451 6.9994 3.65451Z" fill="#979696"/>
</svg>
