<svg width="12" height="12" viewBox="0 0 12 12" fill="none" xmlns="http://www.w3.org/2000/svg">
<path d="M0.999947 8.75H2.24994C2.80222 8.75 3.24995 9.1977 3.24995 9.75001V11C3.24995 11.5523 2.80222 12 2.24994 12H0.999947C0.447666 12 -6.10352e-05 11.5523 -6.10352e-05 11V9.75001C-6.10352e-05 9.19773 0.447666 8.75 0.999947 8.75Z" fill="#979696"/>
<path d="M11.5589 8.921C11.394 8.80925 11.1992 8.74967 10.9999 8.75H9.74995C9.19767 8.75 8.74994 9.1977 8.74994 9.75001V11C8.74994 11.5523 9.19767 12 9.74995 12H10.9999C11.5522 12 11.9999 11.5523 11.9999 11V9.75001C11.9999 9.41755 11.8346 9.10686 11.5589 8.921Z" fill="#979696"/>
<path d="M0.999947 4.375H2.24994C2.80222 4.375 3.24995 4.82273 3.24995 5.37501V6.625C3.24995 7.17728 2.80222 7.62501 2.24994 7.62501H0.999947C0.447666 7.62498 -6.10352e-05 7.17728 -6.10352e-05 6.625V5.37501C-6.10352e-05 4.8227 0.447666 4.375 0.999947 4.375Z" fill="#979696"/>
<path d="M11.5589 4.546C11.394 4.43425 11.1992 4.37467 10.9999 4.375H9.74995C9.19767 4.375 8.74994 4.82273 8.74994 5.37501V6.625C8.74994 7.17728 9.19767 7.62501 9.74995 7.62501H10.9999C11.5522 7.62501 11.9999 7.17728 11.9999 6.625V5.37501C11.9999 5.04252 11.8346 4.73184 11.5589 4.546Z" fill="#979696"/>
<path d="M0.999947 0H2.24994C2.80222 0 3.24995 0.447727 3.24995 1.00001V2.25C3.24995 2.80228 2.80222 3.25001 2.24994 3.25001H0.999947C0.447666 3.25001 -6.10352e-05 2.80228 -6.10352e-05 2.25V1.00001C-6.10352e-05 0.447727 0.447666 0 0.999947 0Z" fill="#979696"/>
<path d="M7.18395 8.921C7.01897 8.80925 6.8242 8.74967 6.62494 8.75H5.37495C4.82267 8.75 4.37494 9.1977 4.37494 9.75001V11C4.37494 11.5523 4.82267 12 5.37495 12H6.62494C7.17722 12 7.62495 11.5523 7.62495 11V9.75001C7.6249 9.41755 7.45962 9.10686 7.18395 8.921Z" fill="#979696"/>
<path d="M7.18395 4.546C7.01897 4.43425 6.8242 4.37467 6.62494 4.375H5.37495C4.82267 4.375 4.37494 4.82273 4.37494 5.37501V6.625C4.37494 7.17728 4.82267 7.62501 5.37495 7.62501H6.62494C7.17722 7.62501 7.62495 7.17728 7.62495 6.625V5.37501C7.6249 5.04252 7.45962 4.73184 7.18395 4.546Z" fill="#979696"/>
<path d="M7.18395 0.171001C7.01897 0.0592513 6.8242 -0.000326777 6.62494 1.34809e-06H5.37495C4.82267 1.34809e-06 4.37494 0.447728 4.37494 1.00001V2.25C4.37494 2.80228 4.82267 3.25001 5.37495 3.25001H6.62494C7.17722 3.25001 7.62495 2.80228 7.62495 2.25V1.00001C7.6249 0.667548 7.45962 0.356837 7.18395 0.171001Z" fill="#979696"/>
<path d="M11.8289 0.441C11.6431 0.165328 11.3324 4.6875e-05 10.9999 0H9.74995C9.19767 0 8.74994 0.447727 8.74994 1.00001V2.25C8.74994 2.80228 9.19767 3.25001 9.74995 3.25001H10.9999C11.5522 3.25001 11.9999 2.80228 11.9999 2.25V1.00001C12.0003 0.800742 11.9407 0.605977 11.8289 0.441Z" fill="#979696"/>
</svg>
