<svg width="10" height="13" viewBox="0 0 10 13" fill="none" xmlns="http://www.w3.org/2000/svg">
<path d="M0.327466 8.56334L9.4292 0.265706L9.28417 0.127319L1.50847 7.21546L7.6059 0.257402L7.44606 0.132855L1.40487 6.55674L6.11706 0.251867L5.94834 0.13839L1.2924 5.89249L4.87982 0.246331L4.70222 0.143926L1.1888 5.16735L3.85568 0.240796L3.67217 0.149461L0.919449 4.68576L2.82563 0.232493L2.6362 0.154997L0.653058 4.14329L1.76006 0.221422L1.56175 0.166067L0.360021 3.58144V0.174371H0.152832V4.1848L0.354104 4.21525L0.679697 3.28806L0.155786 5.14797L0.351141 5.2144L1.22432 3.45412L0.158749 5.94508L0.345225 6.02811L1.70382 3.78902L0.164674 6.63701L0.342262 6.73111L2.24549 4.01044L0.167628 7.28465L0.339308 7.3926L2.82267 4.32319L0.170591 7.87141L0.333383 7.99042L3.68697 4.42559L0.176507 8.43326L0.327466 8.56334Z" fill="white"/>
<path d="M9.8258 12.7398L3.71358 6.63977L3.55374 6.76432L6.28575 10.2074L3.42055 7.00511L3.25184 7.11859L5.34745 10.3236L3.06832 7.29849L2.89073 7.39536L4.35884 10.3208L2.74568 7.61401L2.55625 7.69151L3.53302 10.6391L2.37569 7.96274L2.17739 8.01533L2.71609 10.8107L1.97611 8.33639L1.77188 8.3696L2.01755 11.1096L1.51437 8.75154L1.31013 8.77092L1.32789 11.3117L1.0319 9.29402L0.827665 9.30509L0.712224 11.7877L0.383678 9.71748L0.179443 9.73132V12.8063H0.386641V11.0515L0.664865 12.8201L0.872062 12.8118L0.984541 10.3928L1.33677 12.8201L1.54396 12.8063L1.52325 9.7839L2.17147 12.8256L2.37569 12.798L2.07082 9.37428L3.10384 12.8339L3.30511 12.7897L2.55922 8.901L4.26412 12.845L4.45948 12.7786L3.05056 8.52182L5.62865 12.8533L5.81216 12.7675L3.58038 8.31424L7.00797 12.8644L7.17964 12.7564L4.15461 8.12881L8.40209 12.8699L8.56488 12.7509L4.79987 8.00979L9.67485 12.8727L9.8258 12.7398Z" fill="white"/>
<path d="M9.25458 1.72706L9.04739 1.70491L8.25117 5.71811L8.75732 2.23078L8.55604 2.18927L7.56447 5.47179L8.20973 2.71513L8.01438 2.65701L7.09977 4.74941L7.66511 3.18841L7.47863 3.11092L6.64097 4.5446L7.00801 3.80285L6.83633 3.69767L4.32336 6.32701L4.47728 6.45433L6.5285 4.31211L5.12846 7.13519L5.31494 7.22375L7.08201 4.19033L5.80036 7.71641L5.99571 7.7856L7.75094 3.76964L6.6173 8.60762L6.81857 8.65467L8.35477 3.57313L7.46976 9.63998L7.67399 9.67042L8.95563 3.22993L8.52052 10.4814L8.72476 10.4952L9.52689 3.21056L9.51506 11.4944H9.72225L9.73705 1.29806L9.52985 1.28699L8.97931 6.30487L9.25458 1.72706Z" fill="white"/>
</svg>
